<svg width="28" height="29" viewBox="0 0 28 29" fill="none" xmlns="http://www.w3.org/2000/svg">
<path fill-rule="evenodd" clip-rule="evenodd" d="M8.32943 16.7471C6.10269 15.0413 4.66675 12.355 4.66675 9.33333C4.66675 4.17868 8.84542 0 14.0001 0C19.1547 0 23.3334 4.17868 23.3334 9.33333C23.3334 12.3545 21.898 15.0404 19.6719 16.7462L20.9899 26.6799C21.1184 27.6483 20.0708 28.3364 19.2331 27.8337L14 24.6939L8.76692 27.8337C7.92913 28.3364 6.88153 27.6482 7.01017 26.6797L8.32943 16.7471ZM10.5175 17.9953L9.64186 24.5877L13.3998 22.3329C13.7692 22.1112 14.2308 22.1112 14.6003 22.3329L18.3585 24.5879L17.4838 17.9948C16.4074 18.4282 15.2316 18.6667 14.0001 18.6667C12.769 18.6667 11.5936 18.4283 10.5175 17.9953ZM17.886 15.1566C17.8192 15.1911 17.7564 15.2318 17.6982 15.2778C16.6252 15.9468 15.3578 16.3333 14.0001 16.3333C10.1341 16.3333 7.00008 13.1993 7.00008 9.33333C7.00008 5.46734 10.1341 2.33333 14.0001 2.33333C17.8661 2.33333 21.0001 5.46734 21.0001 9.33333C21.0001 11.7616 19.7636 13.9011 17.886 15.1566Z" fill="black"/>
<mask id="mask0_3610_145" style="mask-type:luminance" maskUnits="userSpaceOnUse" x="4" y="0" width="20" height="29">
<path fill-rule="evenodd" clip-rule="evenodd" d="M8.32943 16.7471C6.10269 15.0413 4.66675 12.355 4.66675 9.33333C4.66675 4.17868 8.84542 0 14.0001 0C19.1547 0 23.3334 4.17868 23.3334 9.33333C23.3334 12.3545 21.898 15.0404 19.6719 16.7462L20.9899 26.6799C21.1184 27.6483 20.0708 28.3364 19.2331 27.8337L14 24.6939L8.76692 27.8337C7.92913 28.3364 6.88153 27.6482 7.01017 26.6797L8.32943 16.7471ZM10.5175 17.9953L9.64186 24.5877L13.3998 22.3329C13.7692 22.1112 14.2308 22.1112 14.6003 22.3329L18.3585 24.5879L17.4838 17.9948C16.4074 18.4282 15.2316 18.6667 14.0001 18.6667C12.769 18.6667 11.5936 18.4283 10.5175 17.9953ZM17.886 15.1566C17.8192 15.1911 17.7564 15.2318 17.6982 15.2778C16.6252 15.9468 15.3578 16.3333 14.0001 16.3333C10.1341 16.3333 7.00008 13.1993 7.00008 9.33333C7.00008 5.46734 10.1341 2.33333 14.0001 2.33333C17.8661 2.33333 21.0001 5.46734 21.0001 9.33333C21.0001 11.7616 19.7636 13.9011 17.886 15.1566Z" fill="white"/>
</mask>
<g mask="url(#mask0_3610_145)">
<rect width="28" height="28" fill="white"/>
</g>
</svg>
