<svg width="28" height="28" viewBox="0 0 28 28" fill="none" xmlns="http://www.w3.org/2000/svg">
<path fill-rule="evenodd" clip-rule="evenodd" d="M20.3016 2.33325C18.2897 2.33325 16.3604 3.1327 14.9381 4.55562L14.5266 4.96713L14.1149 4.55542C11.1528 1.59336 6.35036 1.59336 3.3883 4.55542C0.426232 7.51749 0.426232 12.3199 3.3883 15.282L13.7016 25.5953C14.1572 26.051 14.8959 26.051 15.3515 25.5953L25.6649 15.282C27.0876 13.8599 27.887 11.9306 27.887 9.91872C27.887 7.90687 27.0876 5.97748 25.6651 4.55562C24.2428 3.1327 22.3134 2.33325 20.3016 2.33325ZM22.7783 14.8688L14.5266 23.1205L5.03821 13.6321C2.98737 11.5812 2.98737 8.25618 5.03821 6.20534C7.08905 4.1545 10.4141 4.1545 12.465 6.20534L13.7016 7.44201C14.1572 7.89762 14.8959 7.89762 15.3515 7.44201L16.5882 6.20534C17.573 5.22005 18.9088 4.66659 20.3016 4.66659C21.6944 4.66659 23.0301 5.22005 24.0152 6.20553C25.0003 7.19017 25.5537 8.5259 25.5537 9.91872C25.5537 11.3115 25.0003 12.6473 24.0152 13.6319L22.7783 14.8688Z" fill="black"/>
<mask id="mask0_3610_158" style="mask-type:luminance" maskUnits="userSpaceOnUse" x="1" y="2" width="27" height="24">
<path fill-rule="evenodd" clip-rule="evenodd" d="M20.3016 2.33325C18.2897 2.33325 16.3604 3.1327 14.9381 4.55562L14.5266 4.96713L14.1149 4.55542C11.1528 1.59336 6.35036 1.59336 3.3883 4.55542C0.426232 7.51749 0.426232 12.3199 3.3883 15.282L13.7016 25.5953C14.1572 26.051 14.8959 26.051 15.3515 25.5953L25.6649 15.282C27.0876 13.8599 27.887 11.9306 27.887 9.91872C27.887 7.90687 27.0876 5.97748 25.6651 4.55562C24.2428 3.1327 22.3134 2.33325 20.3016 2.33325ZM22.7783 14.8688L14.5266 23.1205L5.03821 13.6321C2.98737 11.5812 2.98737 8.25618 5.03821 6.20534C7.08905 4.1545 10.4141 4.1545 12.465 6.20534L13.7016 7.44201C14.1572 7.89762 14.8959 7.89762 15.3515 7.44201L16.5882 6.20534C17.573 5.22005 18.9088 4.66659 20.3016 4.66659C21.6944 4.66659 23.0301 5.22005 24.0152 6.20553C25.0003 7.19017 25.5537 8.5259 25.5537 9.91872C25.5537 11.3115 25.0003 12.6473 24.0152 13.6319L22.7783 14.8688Z" fill="white"/>
</mask>
<g mask="url(#mask0_3610_158)">
<rect width="28" height="28" fill="white"/>
</g>
</svg>
