<svg width="28" height="28" viewBox="0 0 28 28" fill="none" xmlns="http://www.w3.org/2000/svg">
<path fill-rule="evenodd" clip-rule="evenodd" d="M2.78365 9.57917L13.2837 1.4125C13.705 1.08483 14.2949 1.08483 14.7162 1.4125L25.2162 9.57917C25.5004 9.8002 25.6666 10.1401 25.6666 10.5001V23.3334C25.6666 25.2664 24.0996 26.8334 22.1666 26.8334L17.4999 26.8334H10.4999L5.83325 26.8334C3.90026 26.8334 2.33325 25.2664 2.33325 23.3334V10.5001C2.33325 10.1401 2.49947 9.8002 2.78365 9.57917ZM11.6666 24.5H16.3333V15.1667H11.6666V24.5ZM18.6666 24.5V14.0001C18.6666 13.3557 18.1443 12.8334 17.4999 12.8334H10.4999C9.85559 12.8334 9.33325 13.3557 9.33325 14.0001V24.5H5.83325C5.18892 24.5 4.66659 23.9777 4.66659 23.3334V11.0706L13.9999 3.81138L23.3333 11.0706V23.3334C23.3333 23.9777 22.8109 24.5 22.1666 24.5H18.6666Z" fill="black"/>
<mask id="mask0_3610_412" style="mask-type:luminance" maskUnits="userSpaceOnUse" x="2" y="1" width="24" height="26">
<path fill-rule="evenodd" clip-rule="evenodd" d="M2.78365 9.57917L13.2837 1.4125C13.705 1.08483 14.2949 1.08483 14.7162 1.4125L25.2162 9.57917C25.5004 9.8002 25.6666 10.1401 25.6666 10.5001V23.3334C25.6666 25.2664 24.0996 26.8334 22.1666 26.8334L17.4999 26.8334H10.4999L5.83325 26.8334C3.90026 26.8334 2.33325 25.2664 2.33325 23.3334V10.5001C2.33325 10.1401 2.49947 9.8002 2.78365 9.57917ZM11.6666 24.5H16.3333V15.1667H11.6666V24.5ZM18.6666 24.5V14.0001C18.6666 13.3557 18.1443 12.8334 17.4999 12.8334H10.4999C9.85559 12.8334 9.33325 13.3557 9.33325 14.0001V24.5H5.83325C5.18892 24.5 4.66659 23.9777 4.66659 23.3334V11.0706L13.9999 3.81138L23.3333 11.0706V23.3334C23.3333 23.9777 22.8109 24.5 22.1666 24.5H18.6666Z" fill="white"/>
</mask>
<g mask="url(#mask0_3610_412)">
<rect width="28" height="28" fill="white"/>
</g>
</svg>
