<svg width="28" height="28" viewBox="0 0 28 28" fill="none" xmlns="http://www.w3.org/2000/svg">
<path d="M14 0C6.28719 0 1.63317e-05 5.09009 0 11.3339C0.00086558 11.3458 0.00163293 11.358 0.0032661 11.37C0.174912 16.408 3.54875 19.7882 7.65875 22.1569C11.3733 24.2976 12.7018 25.8626 12.7018 25.8626C13.4111 26.6817 14.9445 26.5912 15.4992 25.6974C16.6052 24.362 18.692 22.9764 20.2329 22.1491C24.6378 19.8088 28.0003 16.3704 28 11.3339C28 5.09005 21.7127 0 14 0ZM14 2.64252C19.9457 2.64252 24.7336 6.5168 24.7336 11.3339C24.7338 15.4735 22.3181 17.8799 18.4401 19.9402C16.2606 21.0981 14.8337 22.1844 13.9298 23.0111C12.9801 22.2209 11.5525 21.1568 9.5534 20.0047C5.90711 17.9033 3.41956 15.4649 3.26954 11.3184C3.28097 6.50891 8.06095 2.64252 14 2.64252Z" fill="black"/>
<path d="M14 6.04631C10.4105 6.04631 7.46731 8.42918 7.46729 11.3339C7.46729 14.2387 10.4105 16.6241 14 16.6241C17.5894 16.6241 20.5326 14.2387 20.5326 11.3339C20.5326 8.42918 17.5894 6.04631 14 6.04631ZM14 8.68883C15.8223 8.68883 17.2663 9.85581 17.2663 11.3339C17.2663 12.812 15.8223 13.9816 14 13.9816C12.1776 13.9816 10.7336 12.812 10.7336 11.3339C10.7336 9.85581 12.1776 8.68883 14 8.68883Z" fill="black"/>
<mask id="mask0_3610_126" style="mask-type:alpha" maskUnits="userSpaceOnUse" x="0" y="0" width="28" height="27">
<path d="M14 0C6.28719 0 1.63317e-05 5.09009 0 11.3339C0.00086558 11.3458 0.00163293 11.358 0.0032661 11.37C0.174912 16.408 3.54875 19.7882 7.65875 22.1569C11.3733 24.2976 12.7018 25.8626 12.7018 25.8626C13.4111 26.6817 14.9445 26.5912 15.4992 25.6974C16.6052 24.362 18.692 22.9764 20.2329 22.1491C24.6378 19.8088 28.0003 16.3704 28 11.3339C28 5.09005 21.7127 0 14 0ZM14 2.64252C19.9457 2.64252 24.7336 6.5168 24.7336 11.3339C24.7338 15.4735 22.3181 17.8799 18.4401 19.9402C16.2606 21.0981 14.8337 22.1844 13.9298 23.0111C12.9801 22.2209 11.5525 21.1568 9.5534 20.0047C5.90711 17.9033 3.41956 15.4649 3.26954 11.3184C3.28097 6.50891 8.06095 2.64252 14 2.64252Z" fill="black"/>
<path d="M14 6.04631C10.4105 6.04631 7.46731 8.42918 7.46729 11.3339C7.46729 14.2387 10.4105 16.6241 14 16.6241C17.5894 16.6241 20.5326 14.2387 20.5326 11.3339C20.5326 8.42918 17.5894 6.04631 14 6.04631ZM14 8.68883C15.8223 8.68883 17.2663 9.85581 17.2663 11.3339C17.2663 12.812 15.8223 13.9816 14 13.9816C12.1776 13.9816 10.7336 12.812 10.7336 11.3339C10.7336 9.85581 12.1776 8.68883 14 8.68883Z" fill="black"/>
</mask>
<g mask="url(#mask0_3610_126)">
<rect width="28" height="26.4259" fill="white" fill-opacity="0.8"/>
</g>
</svg>
