<svg width="14" height="14" viewBox="0 0 14 14" fill="none" xmlns="http://www.w3.org/2000/svg">
<path fill-rule="evenodd" clip-rule="evenodd" d="M6.41683 6.41659V2.91659C6.41683 2.59442 6.678 2.33325 7.00016 2.33325C7.32233 2.33325 7.5835 2.59442 7.5835 2.91659V6.41659H11.0835C11.4057 6.41659 11.6668 6.67775 11.6668 6.99992C11.6668 7.32208 11.4057 7.58325 11.0835 7.58325H7.5835V11.0833C7.5835 11.4054 7.32233 11.6666 7.00016 11.6666C6.678 11.6666 6.41683 11.4054 6.41683 11.0833V7.58325H2.91683C2.59466 7.58325 2.3335 7.32208 2.3335 6.99992C2.3335 6.67775 2.59466 6.41659 2.91683 6.41659H6.41683Z" fill="black"/>
<mask id="mask0_0_111" style="mask-type:luminance" maskUnits="userSpaceOnUse" x="2" y="2" width="10" height="10">
<path fill-rule="evenodd" clip-rule="evenodd" d="M6.41683 6.41659V2.91659C6.41683 2.59442 6.678 2.33325 7.00016 2.33325C7.32233 2.33325 7.5835 2.59442 7.5835 2.91659V6.41659H11.0835C11.4057 6.41659 11.6668 6.67775 11.6668 6.99992C11.6668 7.32208 11.4057 7.58325 11.0835 7.58325H7.5835V11.0833C7.5835 11.4054 7.32233 11.6666 7.00016 11.6666C6.678 11.6666 6.41683 11.4054 6.41683 11.0833V7.58325H2.91683C2.59466 7.58325 2.3335 7.32208 2.3335 6.99992C2.3335 6.67775 2.59466 6.41659 2.91683 6.41659H6.41683Z" fill="white"/>
</mask>
<g mask="url(#mask0_0_111)">
<rect width="14" height="14" fill="#04837C"/>
</g>
</svg>
